<?xml version="1.0" encoding="utf-8"?>

<svg xmlns="http://www.w3.org/2000/svg"  viewBox="269 60" width='269' height='55'><g xmlns="http://www.w3.org/2000/svg"  featurekey="nameFeature-0" fill="#75fcce"><path d="M43.2 11.96 l10.8 0 c-0.6 1 -4.64 8.04 -8.52 14.8 c-2.28 3.96 -4.8 8.4 -7.64 13.24 l-3.6 0 l-3.16 -5.4 c-1.6 -2.92 -3.44 -5.92 -4.08 -7.08 c-1.88 3.24 -3.64 6.32 -4.96 8.68 c-0.76 1.36 -1.52 2.64 -2.2 3.8 l-3.6 0 c0.32 -0.64 9.84 -17.28 10.76 -18.68 c0.08 0.08 2.32 3.96 4.56 7.84 l4.48 7.72 c1.92 -3.32 5.04 -8.8 7.72 -13.4 l4.84 -8.4 l-3.6 0 c-3.52 6.2 -6.04 10.6 -8.92 15.48 l-4.48 -7.6 l-4.6 -7.88 c-5 8.64 -7.96 13.92 -12.56 21.8 c-0.28 -0.48 -14.48 -24.88 -14.44 -24.92 l10.8 0 l5.44 9.36 l-1.8 3.12 l-5.44 -9.36 l-3.6 0 c0.8 1.28 8.28 14.32 9.04 15.56 l7.84 -13.6 l2.92 -5.08 l3.6 0 c0.36 0.68 5.56 9.6 7.28 12.4 c2.24 -3.84 3.96 -6.88 5.2 -9.08 z M75.868 10.719999999999999 c8.4 0 15.24 6.84 15.24 15.28 s-6.84 15.24 -15.24 15.24 c-8.44 0 -15.28 -6.8 -15.28 -15.24 s6.84 -15.28 15.28 -15.28 z M75.868 38.16 c6.72 0 12.16 -5.44 12.16 -12.16 s-5.44 -12.2 -12.16 -12.2 c-6.76 0 -12.2 5.48 -12.2 12.2 s5.44 12.16 12.2 12.16 z M75.868 16.88 c5 0 9.08 4.12 9.08 9.12 s-4.08 9.08 -9.08 9.08 s-9.12 -4.08 -9.12 -9.08 s4.12 -9.12 9.12 -9.12 z M75.868 32 c3.32 0 6 -2.68 6 -6 c0 -3.36 -2.68 -6.04 -6 -6.04 c-3.36 0 -6.04 2.68 -6.04 6.04 c0 3.32 2.68 6 6.04 6 z M141.656 11.96 l10.8 0 c-0.6 1 -4.64 8.04 -8.52 14.8 c-2.28 3.96 -4.8 8.4 -7.64 13.24 l-3.6 0 l-3.16 -5.4 c-1.6 -2.92 -3.44 -5.92 -4.08 -7.08 c-1.88 3.24 -3.64 6.32 -4.96 8.68 c-0.76 1.36 -1.52 2.64 -2.2 3.8 l-3.6 0 c0.32 -0.64 9.84 -17.28 10.76 -18.68 c0.08 0.08 2.32 3.96 4.56 7.84 l4.48 7.72 c1.92 -3.32 5.04 -8.8 7.72 -13.4 l4.84 -8.4 l-3.6 0 c-3.52 6.2 -6.04 10.6 -8.92 15.48 l-4.48 -7.6 l-4.6 -7.88 c-5 8.64 -7.96 13.92 -12.56 21.8 c-0.28 -0.48 -14.48 -24.88 -14.44 -24.92 l10.8 0 l5.44 9.36 l-1.8 3.12 l-5.44 -9.36 l-3.6 0 c0.8 1.28 8.28 14.32 9.04 15.56 l7.84 -13.6 l2.92 -5.08 l3.6 0 c0.36 0.68 5.56 9.6 7.28 12.4 c2.24 -3.84 3.96 -6.88 5.2 -9.08 z M216.83199999999997 11.96 l10.8 0 c-0.6 1 -4.64 8.04 -8.52 14.8 c-2.28 3.96 -4.8 8.4 -7.64 13.24 l-3.6 0 c0.32 -0.52 3.88 -6.8 7.4 -12.88 c2.04 -3.56 4.36 -7.6 6.96 -12.04 l-3.6 0 c-5.04 8.64 -7.96 13.8 -12.56 21.8 c-0.28 -0.48 -14.48 -24.88 -14.44 -24.92 l10.8 0 l5.44 9.36 l-1.8 3.12 l-5.44 -9.36 l-3.6 0 c0.8 1.28 8.28 14.32 9.04 15.56 l7.84 -13.6 z M269.97999999999996 40 l-10.8 0 l-3.64 -6.28 l-7 0 l0 6.28 l-9.32 0 l0 -15.6 l22.88 0.04 c2.6 0 4.68 -2.12 4.68 -4.68 c0 -2.6 -2.08 -4.68 -4.68 -4.68 l-19.76 0 l0 3.12 l19.76 0 c0.84 0.04 1.48 0.72 1.48 1.56 s-0.64 1.52 -1.48 1.56 l-0.04 0 l-0.04 0 l-22.8 0 l0 -9.36 l22.88 0 c4.32 0 7.8 3.48 7.8 7.8 c0 4.28 -3.48 7.8 -7.8 7.8 l-19.76 -0.04 l0 9.36 l3.12 0 l0 -6.28 l11.88 0 c1.28 2.32 3.44 5.88 3.64 6.28 l3.6 0 c-0.32 -0.44 -2.16 -3.72 -3.64 -6.28 l3.6 0 c1.32 2.28 2.64 4.64 3.72 6.4 z"/></g></svg>