<?xml version="1.0" encoding="utf-8"?>

<svg xmlns="http://www.w3.org/2000/svg" width="445.7699920654297" height="92.64815749578408" viewBox="-4 0 374.22222222222223 77.77777777777777"><g id="SvgjsG3285" featurekey="symbolFeature-0" transform="matrix(0.3835196085175977,0,0,0.3835196085175977,-4,0)" fill="#75fcce"><path xmlns="http://www.w3.org/2000/svg" d="M101.4,0C45.4,0,0,45.4,0,101.4c0,56,45.4,101.4,101.4,101.4c56,0,101.4-45.4,101.4-101.4C202.8,45.4,157.4,0,101.4,0z     M27.2,53.2l4.1,4.1v25.9L18.6,70.4C20.8,64.3,23.8,58.6,27.2,53.2z M101.4,189.8c-48.8,0-88.4-39.6-88.4-88.4    c0-9.1,1.4-17.9,3.9-26.1l14.5,14.5v28.5h0l-0.1,0.1l23.2,23.2c-3.6,5.2-3.1,12.4,1.5,17c5.2,5.2,13.6,5.2,18.8,0    c5.2-5.2,5.2-13.6,0-18.8c-4.6-4.6-11.8-5.1-17-1.5L36,116.5v-22l15.4,15.4c-3.6,5.2-3.1,12.4,1.5,17c5.2,5.2,13.6,5.2,18.8,0    s5.2-13.6,0-18.8c-4.6-4.6-11.8-5.1-17-1.5L36,87.9l0-32.4l0,0l-6.1-6.1c2.1-2.9,4.4-5.6,6.8-8.2L54,58.3l0,20.6h0L53.9,79l41,41    c-3.6,5.2-3.1,12.4,1.5,17c5.2,5.2,13.6,5.2,18.8,0c5.2-5.2,5.2-13.6,0-18.8c-4.6-4.6-11.8-5.1-17-1.5L58.6,77.1l0-20.6l0,0    L40,37.8c1.3-1.2,2.6-2.4,4-3.6l92.4,92.4c-3.6,5.2-3.1,12.4,1.5,17c5.3,5.3,14,5.2,19.2-0.4c4.8-5.2,4.6-13.4-0.3-18.4    c-4.6-4.7-11.9-5.2-17.1-1.5L47.6,31.2c1.4-1.1,2.9-2.2,4.5-3.2l31.7,31.7v0h0l0,0l0,0h20.5l14,14c-3.6,5.2-3.1,12.4,1.5,17    c5.2,5.2,13.6,5.2,18.8,0c5.2-5.2,5.2-13.6,0-18.8c-4.6-4.6-11.8-5.1-17-1.5l-15.4-15.4l0,0H85.7L56,25.5    c8.9-5.3,18.9-9.2,29.5-11.1l17.9,17.9c-3.6,5.2-3.1,12.4,1.5,17c5.2,5.2,13.6,5.2,18.8,0c5.2-5.2,5.2-13.6,0-18.8    c-4.6-4.6-11.8-5.1-17-1.5L91.2,13.6c3.3-0.4,6.7-0.6,10.2-0.6c48.8,0,88.4,39.6,88.4,88.4S150.2,189.8,101.4,189.8z M59.3,143    c3.4-3.4,8.9-3.4,12.3,0c3.4,3.4,3.4,8.9,0,12.3c-3.4,3.4-8.9,3.4-12.3,0C55.9,151.9,55.9,146.4,59.3,143z M56.2,111.3    c3.4-3.4,8.9-3.4,12.3,0c3.4,3.4,3.4,8.9,0,12.3c-3.4,3.4-8.9,3.4-12.3,0C52.8,120.3,52.8,114.7,56.2,111.3z M99.6,121.4    c3.4-3.4,8.9-3.4,12.3,0c3.4,3.4,3.4,8.9,0,12.3c-3.4,3.4-8.9,3.4-12.3,0C96.3,130.3,96.3,124.8,99.6,121.4z M141.1,128.1    c3.4-3.4,8.9-3.4,12.3,0c3.4,3.4,3.4,8.9,0,12.3c-3.4,3.4-8.9,3.4-12.3,0C137.7,137,137.7,131.5,141.1,128.1z M123.1,75.3    c3.4-3.4,8.9-3.4,12.3,0c3.4,3.4,3.4,8.9,0,12.3c-3.4,3.4-8.9,3.4-12.3,0C119.7,84.2,119.7,78.7,123.1,75.3z M108.1,33.7    c3.4-3.4,8.9-3.4,12.3,0c3.4,3.4,3.4,8.9,0,12.3c-3.4,3.4-8.9,3.4-12.3,0C104.7,42.7,104.7,37.1,108.1,33.7z"></path></g><g id="SvgjsG3286" featurekey="nameFeature-0" transform="matrix(1.008304758988064,0,0,1.008304758988064,98.00008558189731,13.190974637590239)" fill="#75fcce"><path d="M43.2 11.96 l10.8 0 c-0.6 1 -4.64 8.04 -8.52 14.8 c-2.28 3.96 -4.8 8.4 -7.64 13.24 l-3.6 0 l-3.16 -5.4 c-1.6 -2.92 -3.44 -5.92 -4.08 -7.08 c-1.88 3.24 -3.64 6.32 -4.96 8.68 c-0.76 1.36 -1.52 2.64 -2.2 3.8 l-3.6 0 c0.32 -0.64 9.84 -17.28 10.76 -18.68 c0.08 0.08 2.32 3.96 4.56 7.84 l4.48 7.72 c1.92 -3.32 5.04 -8.8 7.72 -13.4 l4.84 -8.4 l-3.6 0 c-3.52 6.2 -6.04 10.6 -8.92 15.48 l-4.48 -7.6 l-4.6 -7.88 c-5 8.64 -7.96 13.92 -12.56 21.8 c-0.28 -0.48 -14.48 -24.88 -14.44 -24.92 l10.8 0 l5.44 9.36 l-1.8 3.12 l-5.44 -9.36 l-3.6 0 c0.8 1.28 8.28 14.32 9.04 15.56 l7.84 -13.6 l2.92 -5.08 l3.6 0 c0.36 0.68 5.56 9.6 7.28 12.4 c2.24 -3.84 3.96 -6.88 5.2 -9.08 z M75.868 10.719999999999999 c8.4 0 15.24 6.84 15.24 15.28 s-6.84 15.24 -15.24 15.24 c-8.44 0 -15.28 -6.8 -15.28 -15.24 s6.84 -15.28 15.28 -15.28 z M75.868 38.16 c6.72 0 12.16 -5.44 12.16 -12.16 s-5.44 -12.2 -12.16 -12.2 c-6.76 0 -12.2 5.48 -12.2 12.2 s5.44 12.16 12.2 12.16 z M75.868 16.88 c5 0 9.08 4.12 9.08 9.12 s-4.08 9.08 -9.08 9.08 s-9.12 -4.08 -9.12 -9.08 s4.12 -9.12 9.12 -9.12 z M75.868 32 c3.32 0 6 -2.68 6 -6 c0 -3.36 -2.68 -6.04 -6 -6.04 c-3.36 0 -6.04 2.68 -6.04 6.04 c0 3.32 2.68 6 6.04 6 z M141.656 11.96 l10.8 0 c-0.6 1 -4.64 8.04 -8.52 14.8 c-2.28 3.96 -4.8 8.4 -7.64 13.24 l-3.6 0 l-3.16 -5.4 c-1.6 -2.92 -3.44 -5.92 -4.08 -7.08 c-1.88 3.24 -3.64 6.32 -4.96 8.68 c-0.76 1.36 -1.52 2.64 -2.2 3.8 l-3.6 0 c0.32 -0.64 9.84 -17.28 10.76 -18.68 c0.08 0.08 2.32 3.96 4.56 7.84 l4.48 7.72 c1.92 -3.32 5.04 -8.8 7.72 -13.4 l4.84 -8.4 l-3.6 0 c-3.52 6.2 -6.04 10.6 -8.92 15.48 l-4.48 -7.6 l-4.6 -7.88 c-5 8.64 -7.96 13.92 -12.56 21.8 c-0.28 -0.48 -14.48 -24.88 -14.44 -24.92 l10.8 0 l5.44 9.36 l-1.8 3.12 l-5.44 -9.36 l-3.6 0 c0.8 1.28 8.28 14.32 9.04 15.56 l7.84 -13.6 l2.92 -5.08 l3.6 0 c0.36 0.68 5.56 9.6 7.28 12.4 c2.24 -3.84 3.96 -6.88 5.2 -9.08 z M216.83199999999997 11.96 l10.8 0 c-0.6 1 -4.64 8.04 -8.52 14.8 c-2.28 3.96 -4.8 8.4 -7.64 13.24 l-3.6 0 c0.32 -0.52 3.88 -6.8 7.4 -12.88 c2.04 -3.56 4.36 -7.6 6.96 -12.04 l-3.6 0 c-5.04 8.64 -7.96 13.8 -12.56 21.8 c-0.28 -0.48 -14.48 -24.88 -14.44 -24.92 l10.8 0 l5.44 9.36 l-1.8 3.12 l-5.44 -9.36 l-3.6 0 c0.8 1.28 8.28 14.32 9.04 15.56 l7.84 -13.6 z M269.97999999999996 40 l-10.8 0 l-3.64 -6.28 l-7 0 l0 6.28 l-9.32 0 l0 -15.6 l22.88 0.04 c2.6 0 4.68 -2.12 4.68 -4.68 c0 -2.6 -2.08 -4.68 -4.68 -4.68 l-19.76 0 l0 3.12 l19.76 0 c0.84 0.04 1.48 0.72 1.48 1.56 s-0.64 1.52 -1.48 1.56 l-0.04 0 l-0.04 0 l-22.8 0 l0 -9.36 l22.88 0 c4.32 0 7.8 3.48 7.8 7.8 c0 4.28 -3.48 7.8 -7.8 7.8 l-19.76 -0.04 l0 9.36 l3.12 0 l0 -6.28 l11.88 0 c1.28 2.32 3.44 5.88 3.64 6.28 l3.6 0 c-0.32 -0.44 -2.16 -3.72 -3.64 -6.28 l3.6 0 c1.32 2.28 2.64 4.64 3.72 6.4 z"></path></g></svg>