<?xml version="1.0" encoding="utf-8"?>

<svg xmlns="http://www.w3.org/2000/svg" width="420.6" height="114.66346907987199" viewBox="0 0 370.1698113207547 100.91525134255683" ><defs id="SvgjsDefs3284"><linearGradient id="SvgjsLinearGradient3289"><stop id="SvgjsStop3290" stop-color="#7f00ff" offset="0"></stop><stop id="SvgjsStop3291" stop-color="#e100ff" offset="1"></stop></linearGradient></defs><g id="SvgjsG3285" featurekey="Wg4LIr-0" transform="matrix(6.39590718098677,0,0,6.39590718098677,-5.116725821034571,-32.37545223533923)" fill="url(#SvgjsLinearGradient3289)"><path d="M1.44 18.78 l-0.64 -0.64 l0 -10.28 l1.86 -1.86 l1.86 0 l0 2.52 l-0.82 0 l-0.38 0.38 l0 7.98 z M3.68 20.84 l0 -0.84 l-1.02 0 l-0.64 -0.64 l1.9 -1.88 l2.02 0 l1.9 1.88 l-0.64 0.64 l-1 0 l0 0.84 l-2.52 0 z M8.42 18.78 l-1.88 -1.9 l0 -7.98 l-0.38 -0.38 l-0.8 0 l0 -2.52 l1.84 0 l1.86 1.86 l0 10.28 z"></path></g><g id="SvgjsG3286" featurekey="qafomr-0" transform="matrix(2.4490672514381644,0,0,2.4490672514381644,70.79584040795066,15.795407138923602)" fill="#ffffff"><path d="M15.46 13 c0 1.92 -0.68 3.58 -1.78 4.82 l1.62 2.18 l-3.78 0 l-0.3 -0.42 c-0.94 0.4 -1.96 0.62 -3.04 0.62 c-3.96 0 -7.28 -2.94 -7.28 -7.2 s3.32 -7.2 7.28 -7.2 s7.28 2.94 7.28 7.2 z M8.18 17.18 c0.4 0 0.78 -0.06 1.14 -0.16 l-2.56 -3.44 l3.78 0 l1.1 1.5 c0.32 -0.6 0.48 -1.32 0.48 -2.08 c0 -2.42 -1.68 -4.18 -3.94 -4.18 s-3.92 1.76 -3.92 4.18 s1.66 4.18 3.92 4.18 z M21 20.16 c-1.94 0 -3.92 -1.3 -3.92 -4.6 l0 -5.96 l3.16 0 l0 5.74 c0 1.58 0.54 2.08 1.54 2.08 c1.42 0 2.24 -1.38 2.44 -1.98 l0 -5.84 l3.16 0 l0 10.4 l-3.16 0 l0 -1.8 c-0.2 0.5 -1.26 1.96 -3.22 1.96 z M36.9 9.6 l3.16 0 l0 10.4 l-3.16 0 l0 -1.04 c-0.14 0.36 -1.08 1.24 -2.68 1.24 c-2.38 0 -5.12 -1.7 -5.12 -5.42 c0 -3.58 2.74 -5.36 5.12 -5.36 c1.6 0 2.54 0.92 2.68 1.14 l0 -0.96 z M34.68 17.42 c1.3 0 2.36 -0.9 2.36 -2.64 c0 -1.68 -1.06 -2.58 -2.36 -2.58 c-1.36 0 -2.52 0.92 -2.52 2.58 c0 1.72 1.16 2.64 2.52 2.64 z M48.48 9.44 c1.94 0 3.92 1.3 3.92 4.6 l0 5.96 l-3.16 0 l0 -5.74 c0 -1.58 -0.54 -2.08 -1.54 -2.08 c-1.42 0 -2.24 1.38 -2.44 1.98 l0 5.84 l-3.16 0 l0 -10.4 l3.16 0 l0 1.8 c0.2 -0.5 1.26 -1.96 3.22 -1.96 z M59.379999999999995 17.36 c0.56 0 0.96 -0.08 1.4 -0.2 l0 2.62 c-0.44 0.2 -1.16 0.34 -2.22 0.34 c-1.74 0 -3.2 -0.58 -3.2 -3.78 l0 -4.14 l-1.46 0 l0 -2.6 l1.46 0 l0 -2.44 l3.16 0 l0 2.44 l2.22 0 l0 2.6 l-2.22 0 l0 4.14 c0 0.46 0.12 1.02 0.86 1.02 z M66.25999999999999 20.16 c-1.94 0 -3.92 -1.3 -3.92 -4.6 l0 -5.96 l3.16 0 l0 5.74 c0 1.58 0.54 2.08 1.54 2.08 c1.42 0 2.24 -1.38 2.44 -1.98 l0 -5.84 l3.16 0 l0 10.4 l-3.16 0 l0 -1.8 c-0.2 0.5 -1.26 1.96 -3.22 1.96 z M88.58 9.44 c2.22 0 4.18 1.44 4.18 4.96 l0 5.6 l-3.16 0 l0 -5.5 c0 -1.32 -0.56 -2.32 -2.02 -2.32 c-1.22 0 -2.04 1.08 -2.28 2.04 l0 5.78 l-3.16 0 l0 -5.5 c0 -1.32 -0.82 -2.32 -2.02 -2.32 c-1.3 0 -2.08 0.88 -2.28 2.04 l0 5.78 l-3.16 0 l0 -10.4 l3.16 0 l0 1.9 c0.04 -0.48 1.06 -2.06 3.1 -2.06 c1.5 0 2.94 0.8 3.8 2.26 c0.24 -0.56 1.44 -2.26 3.84 -2.26 z M106.02 6 l3.42 0 l-6.22 14 l-2.94 0 l-6.22 -14 l3.42 0 l4.28 10.1 z M118.84 20 l-2.86 -4.58 l-1.72 0 l0 4.58 l-3.22 0 l0 -14 l4.98 0 c3.14 0 5.22 1.9 5.22 4.82 c0 1.86 -0.88 3.26 -2.36 3.98 l3.36 5.2 l-3.4 0 z M114.26 8.96 l0 3.72 l1.56 0 c1.3 0 2.2 -0.46 2.2 -1.86 c0 -1.38 -0.9 -1.86 -2.2 -1.86 l-1.56 0 z"></path></g></svg> 