<?xml version="1.0" encoding="utf-8"?>
<svg version="1.1" id="Icons" xmlns="http://www.w3.org/2000/svg" viewBox="0 0 32 32" xml:space="preserve" stroke='#75fcce' stroke-width='2' stroke-linecap='round' fill='none' stroke-linejoin='round' stroke-miterlimit='10'>
<line  x1="4" y1="24" x2="28" y2="24"/>
<polygon points="16,2 10,5 16,8 22,5 "/>
<polyline points="10,5 10,12 16,15 22,12 22,5 "/>
<line x1="16" y1="8" x2="16" y2="15"/>
<path d="M28.5,23.4l-3.9-4.7c-0.4-0.5-0.9-0.7-1.5-0.7H8.9c-0.6,0-1.2,0.3-1.5,0.7l-3.9,4.7C3.2,23.8,3,24.3,3,24.7V27
	c0,1.1,0.9,2,2,2h22c1.1,0,2-0.9,2-2v-2.3C29,24.3,28.8,23.8,28.5,23.4z"/>
</svg>