<?xml version="1.0" standalone="no"?>
<!DOCTYPE svg PUBLIC "-//W3C//DTD SVG 20010904//EN"
 "http://www.w3.org/TR/2001/REC-SVG-20010904/DTD/svg10.dtd">
<svg version="1.0" xmlns="http://www.w3.org/2000/svg"
 width="700.000000pt" height="700.000000pt" viewBox="0 0 700.000000 700.000000"
 preserveAspectRatio="xMidYMid meet">
<metadata>
Created by potrace 1.14, written by Peter Selinger 2001-2017
</metadata>
<g transform="translate(0.000000,700.000000) scale(0.100000,-0.100000)"
fill="#000000" stroke="none">
<path d="M2496 5791 l-316 -316 0 -1740 0 -1741 79 -79 c43 -44 92 -93 110
-109 l31 -30 241 245 c132 134 275 280 317 324 l77 80 0 1350 -1 1350 65 63
65 62 111 1 c60 1 122 0 138 -1 20 -1 27 3 27 17 1 40 1 664 0 749 l0 90 -314
0 -315 0 -315 -315z"/>
<path d="M3729 6091 c-1 -9 -2 -202 -3 -429 l-1 -413 100 1 c182 3 166 7 237
-63 l64 -63 -1 -1350 0 -1349 67 -70 c37 -38 180 -184 317 -324 226 -229 252
-252 268 -240 9 8 59 56 110 108 l93 94 0 1741 0 1741 -315 315 -315 315 -310
1 c-275 0 -310 -1 -311 -15z"/>
<path d="M2917 1898 l-322 -316 20 -23 c11 -12 58 -61 105 -108 l85 -86 155
-2 c85 -1 164 -2 176 -3 20 0 21 -5 20 -140 -1 -87 3 -140 9 -141 32 -3 822
-4 833 -1 9 3 12 41 12 143 l0 139 53 1 c28 0 104 0 168 0 l116 -1 106 105
c59 58 107 109 107 113 0 4 -143 149 -319 322 l-318 315 -342 0 -342 0 -322
-317z"/>
</g>
</svg>
