<?xml version="1.0" standalone="no"?>
<!DOCTYPE svg PUBLIC "-//W3C//DTD SVG 20010904//EN"
 "http://www.w3.org/TR/2001/REC-SVG-20010904/DTD/svg10.dtd">
<svg version="1.0" xmlns="http://www.w3.org/2000/svg"
 width="700.000000pt" height="700.000000pt" viewBox="0 0 700.000000 700.000000"
 preserveAspectRatio="xMidYMid meet">
<metadata>
Created by potrace 1.14, written by Peter Selinger 2001-2017
</metadata>
<g transform="translate(0.000000,700.000000) scale(0.100000,-0.100000)"
fill="#000000" stroke="none">
<path d="M3248 6995 c-2 -2 -41 -6 -86 -9 -46 -3 -93 -8 -105 -11 -12 -2 -44
-7 -72 -10 -27 -3 -57 -8 -65 -10 -8 -3 -31 -6 -50 -9 -19 -2 -46 -7 -60 -10
-14 -3 -36 -8 -50 -10 -39 -8 -70 -15 -90 -21 -10 -3 -27 -8 -39 -10 -198 -38
-582 -188 -813 -316 -51 -29 -102 -57 -113 -63 -199 -111 -478 -328 -676 -525
-383 -384 -641 -790 -830 -1306 -64 -174 -146 -510 -164 -670 -4 -33 -9 -67
-10 -76 -20 -104 -27 -567 -12 -724 14 -140 17 -169 27 -220 5 -27 12 -66 15
-85 38 -229 135 -557 225 -755 201 -443 414 -758 725 -1070 194 -195 282 -270
485 -412 287 -202 632 -370 965 -471 105 -32 213 -61 255 -68 14 -3 33 -7 42
-10 10 -3 28 -7 40 -9 13 -2 64 -11 115 -20 51 -8 118 -18 150 -21 32 -3 69
-8 83 -11 14 -3 144 -6 290 -8 235 -3 332 1 475 20 22 3 60 8 85 11 82 11 294
55 400 84 492 134 975 391 1360 724 78 68 331 326 397 406 225 271 416 591
555 928 6 15 12 32 14 37 1 6 14 41 28 78 25 66 90 273 100 319 3 13 10 41 15
63 6 22 12 54 15 70 3 17 8 41 11 55 3 14 8 39 10 55 3 17 8 37 10 45 2 8 7
42 11 75 3 33 8 62 9 65 26 44 26 762 0 860 -2 8 -7 42 -10 75 -7 63 -39 232
-57 300 -5 22 -12 48 -14 59 -32 167 -178 544 -296 766 -110 207 -290 471
-439 645 -48 56 -282 291 -344 346 -303 267 -717 511 -1105 652 -194 70 -463
140 -620 162 -25 3 -56 8 -70 10 -14 2 -52 7 -85 11 -33 3 -73 8 -90 11 -36 6
-542 13 -547 8z m447 -450 c127 -8 157 -11 330 -41 50 -8 117 -22 150 -31 33
-8 69 -17 80 -19 35 -6 237 -73 335 -111 120 -46 366 -171 488 -247 203 -127
371 -262 552 -446 112 -113 135 -139 242 -272 143 -178 320 -485 413 -718 76
-190 146 -430 171 -590 3 -19 7 -42 9 -50 2 -8 7 -37 10 -65 4 -27 8 -57 10
-65 23 -93 23 -580 1 -720 -3 -14 -7 -47 -11 -75 -36 -289 -137 -610 -285
-910 -366 -743 -1006 -1294 -1799 -1549 -145 -47 -385 -101 -491 -111 -36 -4
-71 -8 -79 -11 -50 -16 -442 -23 -591 -10 -307 26 -638 107 -913 220 -503 209
-955 563 -1280 1003 -182 247 -342 553 -433 831 -61 183 -110 392 -130 551 -3
25 -7 57 -9 70 -22 133 -22 566 -1 678 2 10 7 47 11 83 4 36 8 67 10 70 2 3 6
28 9 55 4 28 9 58 12 67 3 9 7 27 9 40 11 58 59 238 65 238 3 0 116 -110 251
-244 l245 -244 -1 -489 -1 -488 396 -400 396 -400 -28 -55 c-159 -312 89 -685
436 -657 195 16 342 134 402 321 119 376 -279 712 -637 537 l-61 -30 -372 373
-372 372 0 372 c0 205 3 372 6 372 3 0 121 -116 263 -258 l258 -259 -20 -34
c-55 -92 -73 -226 -46 -331 22 -86 49 -139 101 -197 275 -306 780 -122 793
290 7 215 -150 413 -362 457 -96 20 -251 -6 -324 -54 -13 -8 -28 -12 -33 -9
-5 3 -150 147 -322 319 l-313 313 0 557 -1 557 -79 78 c-44 43 -91 90 -104
104 l-24 27 56 72 c30 40 83 102 116 138 l60 65 68 -67 c37 -37 170 -168 296
-291 l227 -223 0 -357 0 -357 688 -688 c378 -378 693 -695 700 -704 10 -13 9
-22 -9 -52 -53 -90 -70 -237 -40 -345 61 -217 289 -361 512 -323 373 64 510
527 231 782 -142 131 -342 157 -518 67 l-50 -26 -677 677 -677 677 0 355 0
355 -320 320 -319 319 62 58 c34 31 67 57 72 58 6 0 721 -711 1590 -1580
l1579 -1579 -21 -38 c-73 -134 -75 -307 -5 -437 147 -270 506 -322 723 -105
242 242 139 651 -192 758 -93 30 -250 15 -336 -34 -25 -14 -49 -25 -52 -25 -9
0 -3144 3135 -3149 3148 -2 6 30 34 69 62 l73 51 546 -545 545 -544 335 0
c184 0 342 -1 351 -1 13 -1 427 -403 478 -465 10 -12 7 -24 -14 -65 -94 -186
-52 -406 104 -549 43 -40 161 -98 216 -107 152 -24 297 21 401 123 138 137
176 345 94 518 -112 235 -387 327 -622 209 l-52 -26 -263 263 -262 262 -350 1
c-192 0 -352 2 -355 5 -3 3 -233 230 -511 505 l-506 499 38 23 c21 13 101 55
178 93 250 122 439 189 707 248 l87 20 303 -304 c167 -168 304 -306 306 -308
1 -2 -9 -26 -22 -53 -154 -305 63 -666 400 -665 374 1 589 428 365 725 -133
178 -373 233 -574 131 l-51 -25 -105 105 c-58 57 -177 175 -263 261 -87 85
-158 157 -158 159 0 1 6 3 13 4 6 0 66 4 132 7 66 4 121 8 122 9 4 3 198 -2
298 -9z m328 -635 c136 -51 216 -204 182 -350 -19 -86 -108 -180 -197 -209
-136 -45 -293 22 -360 153 -48 93 -30 232 39 318 35 43 108 90 158 101 50 11
128 6 178 -13z m-3018 -806 c38 -38 65 -74 66 -87 1 -25 1 -773 0 -829 l-1
-37 -212 215 c-117 119 -215 217 -217 219 -19 19 265 585 293 585 3 0 35 -30
71 -66z m3541 -624 c88 -38 142 -100 168 -192 54 -184 -77 -366 -269 -374 -86
-3 -153 20 -211 73 -74 69 -103 137 -99 236 8 204 225 340 411 257z m-2278
-1239 c210 -108 221 -405 20 -522 -46 -28 -126 -48 -164 -43 -99 14 -147 37
-204 96 -74 77 -98 190 -63 299 22 68 107 158 173 182 64 23 181 18 238 -12z
m1433 -325 c212 -60 291 -318 147 -481 -22 -25 -64 -58 -92 -73 -69 -36 -187
-38 -257 -4 -185 91 -225 337 -79 483 71 71 186 101 281 75z m1464 -245 c191
-85 239 -336 91 -483 -75 -75 -204 -107 -299 -73 -215 75 -276 342 -112 498
83 80 216 104 320 58z m-2789 -521 c134 -66 192 -206 148 -358 -23 -79 -105
-161 -188 -186 -293 -92 -519 266 -305 485 97 100 220 121 345 59z"/>
</g>
</svg>
